<svg version="1.2" xmlns="http://www.w3.org/2000/svg" viewBox="0 0 1552 534" width="1552" height="534">
	<title>NXPI-svg</title>
	<style>
		.s0 { fill: #fca600 } 
		.s1 { fill: #0eafe0 } 
		.s2 { fill: #69ca00 } 
	</style>
	<path id="Layer" class="s0" d="m433.9 0v322.1l-272-322.1h-161.9v534h161.9v-322.1l272 322.1 161.9-267-161.9-267"/>
	<path id="Layer" class="s1" d="m891.1 534l-108.4-176.9-108.5 176.9h-191.9l161.9-267-161.9-267h190.2l108.5 176.9 110.1-176.9h190.3l-161.9 267 161.9 267z"/>
	<path id="Layer" fill-rule="evenodd" class="s2" d="m1552 181.9v63.4c0 78.4-35 170.2-148.5 170.2h-272v118.5l-161.9-267 161.9-267h230.3c153.5 0 190.2 78.4 190.2 181.9zm-150.2 6.7c0-36.7-18.4-56.8-66.7-56.8h-202v151.9h217c36.7 0 51.7-36.7 51.7-68.4z"/>
</svg>